<svg xmlns="http://www.w3.org/2000/svg" xmlns:xlink="http://www.w3.org/1999/xlink" width="500" zoomAndPan="magnify" viewBox="0 0 375 374.999991" height="500" preserveAspectRatio="xMidYMid meet" version="1.0"><defs><g/><clipPath id="id1"><path d="M 34 95 L 142 95 L 142 152 L 34 152 Z M 34 95 " clip-rule="nonzero"/></clipPath><clipPath id="id2"><path d="M 23.847656 131.191406 L 130.953125 75.425781 L 165.589844 141.949219 L 58.484375 197.714844 Z M 23.847656 131.191406 " clip-rule="nonzero"/></clipPath><clipPath id="id3"><path d="M 23.847656 131.191406 L 130.953125 75.425781 L 165.589844 141.949219 L 58.484375 197.714844 Z M 23.847656 131.191406 " clip-rule="nonzero"/></clipPath><clipPath id="id4"><path d="M 24.015625 131.105469 L 130.890625 75.457031 L 151.777344 115.574219 L 44.902344 171.21875 Z M 24.015625 131.105469 " clip-rule="nonzero"/></clipPath><clipPath id="id5"><path d="M 24.015625 131.105469 L 130.777344 75.515625 L 151.667969 115.632812 L 44.902344 171.21875 Z M 24.015625 131.105469 " clip-rule="nonzero"/></clipPath><clipPath id="id6"><path d="M 66 121 L 129 121 L 129 168 L 66 168 Z M 66 121 " clip-rule="nonzero"/></clipPath><clipPath id="id7"><path d="M 23.847656 131.191406 L 130.953125 75.425781 L 165.589844 141.949219 L 58.484375 197.714844 Z M 23.847656 131.191406 " clip-rule="nonzero"/></clipPath><clipPath id="id8"><path d="M 23.847656 131.191406 L 130.953125 75.425781 L 165.589844 141.949219 L 58.484375 197.714844 Z M 23.847656 131.191406 " clip-rule="nonzero"/></clipPath><clipPath id="id9"><path d="M 55 148 L 80 148 L 80 189 L 55 189 Z M 55 148 " clip-rule="nonzero"/></clipPath><clipPath id="id10"><path d="M 23.847656 131.191406 L 130.953125 75.425781 L 165.589844 141.949219 L 58.484375 197.714844 Z M 23.847656 131.191406 " clip-rule="nonzero"/></clipPath><clipPath id="id11"><path d="M 23.847656 131.191406 L 130.953125 75.425781 L 165.589844 141.949219 L 58.484375 197.714844 Z M 23.847656 131.191406 " clip-rule="nonzero"/></clipPath><clipPath id="id12"><path d="M 52.5625 149.671875 L 59.722656 145.945312 L 80.746094 186.324219 L 73.585938 190.054688 Z M 52.5625 149.671875 " clip-rule="nonzero"/></clipPath><clipPath id="id13"><path d="M 52.5625 149.671875 L 59.722656 145.945312 L 80.667969 186.179688 L 73.507812 189.90625 Z M 52.5625 149.671875 " clip-rule="nonzero"/></clipPath></defs><rect x="-37.5" width="450" fill="#ffffff" y="-37.499999" height="449.999989" fill-opacity="1"/><rect x="-37.5" width="450" fill="#ffffff" y="-37.499999" height="449.999989" fill-opacity="1"/><rect x="-37.5" width="450" fill="#ffffff" y="-37.499999" height="449.999989" fill-opacity="1"/><rect x="-37.5" width="450" fill="#ffffff" y="-37.499999" height="449.999989" fill-opacity="1"/><g fill="#000000" fill-opacity="1"><g transform="translate(187.499992, 193.874987)"><g/></g></g><g fill="#ff1616" fill-opacity="1"><g transform="translate(73.294922, 258.174989)"><g><path d="M 52.140625 -56.28125 L 43.71875 -56.28125 L 43.71875 -3.015625 L 54.0625 -3.015625 L 54.0625 0 L 2.390625 0 L 2.390625 -3.015625 L 12.71875 -3.015625 L 12.71875 -108.265625 L 2.390625 -108.265625 L 2.390625 -111.296875 L 50.390625 -111.296875 C 64.171875 -111.296875 73.945312 -110.578125 79.71875 -109.140625 C 85.5 -107.710938 89.554688 -105.988281 91.890625 -103.96875 C 96.984375 -99.84375 99.53125 -93.273438 99.53125 -84.265625 C 99.53125 -75.253906 97.300781 -68.8125 92.84375 -64.9375 C 88.394531 -61.070312 81.613281 -58.769531 72.5 -58.03125 L 72.5 -57.546875 C 81.082031 -56.378906 87.066406 -53.832031 90.453125 -49.90625 C 93.847656 -45.988281 95.546875 -39.421875 95.546875 -30.203125 L 95.546875 -21.78125 C 95.546875 -16.269531 95.835938 -12.5625 96.421875 -10.65625 C 97.003906 -8.75 98.25 -7.796875 100.15625 -7.796875 C 102.0625 -7.796875 103.570312 -8.664062 104.6875 -10.40625 C 105.800781 -12.15625 106.835938 -15.84375 107.796875 -21.46875 L 110.5 -21.140625 C 109.332031 -12.128906 107.289062 -6.085938 104.375 -3.015625 C 101.457031 0.0546875 95.648438 1.59375 86.953125 1.59375 C 78.265625 1.59375 72.09375 -0.445312 68.4375 -4.53125 C 64.78125 -8.613281 62.953125 -16.269531 62.953125 -27.5 L 62.953125 -39.109375 C 62.953125 -45.046875 62.179688 -49.390625 60.640625 -52.140625 C 59.109375 -54.898438 56.273438 -56.28125 52.140625 -56.28125 Z M 43.71875 -108.265625 L 43.71875 -59.296875 L 48.8125 -59.296875 C 54.851562 -59.296875 59.328125 -61.148438 62.234375 -64.859375 C 65.148438 -68.578125 66.609375 -74.617188 66.609375 -82.984375 L 66.609375 -87.59375 C 66.609375 -95.96875 65.203125 -101.503906 62.390625 -104.203125 C 59.585938 -106.910156 55.113281 -108.265625 48.96875 -108.265625 Z M 43.71875 -108.265625 "/></g></g></g><g fill="#ff1616" fill-opacity="1"><g transform="translate(187.122086, 258.174989)"><g><path d="M 52.140625 -56.28125 L 43.71875 -56.28125 L 43.71875 -3.015625 L 54.0625 -3.015625 L 54.0625 0 L 2.390625 0 L 2.390625 -3.015625 L 12.71875 -3.015625 L 12.71875 -108.265625 L 2.390625 -108.265625 L 2.390625 -111.296875 L 50.390625 -111.296875 C 64.171875 -111.296875 73.945312 -110.578125 79.71875 -109.140625 C 85.5 -107.710938 89.554688 -105.988281 91.890625 -103.96875 C 96.984375 -99.84375 99.53125 -93.273438 99.53125 -84.265625 C 99.53125 -75.253906 97.300781 -68.8125 92.84375 -64.9375 C 88.394531 -61.070312 81.613281 -58.769531 72.5 -58.03125 L 72.5 -57.546875 C 81.082031 -56.378906 87.066406 -53.832031 90.453125 -49.90625 C 93.847656 -45.988281 95.546875 -39.421875 95.546875 -30.203125 L 95.546875 -21.78125 C 95.546875 -16.269531 95.835938 -12.5625 96.421875 -10.65625 C 97.003906 -8.75 98.25 -7.796875 100.15625 -7.796875 C 102.0625 -7.796875 103.570312 -8.664062 104.6875 -10.40625 C 105.800781 -12.15625 106.835938 -15.84375 107.796875 -21.46875 L 110.5 -21.140625 C 109.332031 -12.128906 107.289062 -6.085938 104.375 -3.015625 C 101.457031 0.0546875 95.648438 1.59375 86.953125 1.59375 C 78.265625 1.59375 72.09375 -0.445312 68.4375 -4.53125 C 64.78125 -8.613281 62.953125 -16.269531 62.953125 -27.5 L 62.953125 -39.109375 C 62.953125 -45.046875 62.179688 -49.390625 60.640625 -52.140625 C 59.109375 -54.898438 56.273438 -56.28125 52.140625 -56.28125 Z M 43.71875 -108.265625 L 43.71875 -59.296875 L 48.8125 -59.296875 C 54.851562 -59.296875 59.328125 -61.148438 62.234375 -64.859375 C 65.148438 -68.578125 66.609375 -74.617188 66.609375 -82.984375 L 66.609375 -87.59375 C 66.609375 -95.96875 65.203125 -101.503906 62.390625 -104.203125 C 59.585938 -106.910156 55.113281 -108.265625 48.96875 -108.265625 Z M 43.71875 -108.265625 "/></g></g></g><g clip-path="url(#id1)"><g clip-path="url(#id2)"><g clip-path="url(#id3)"><g clip-path="url(#id4)"><g clip-path="url(#id5)"><path fill="#ffbd59" d="M 50.019531 133.746094 L 50.015625 133.742188 M 141.164062 95.5 L 141.179688 95.488281 L 141.148438 95.503906 L 112.289062 99.042969 L 112.269531 99.035156 L 112.25 99.046875 L 92.320312 101.492188 L 92.3125 101.492188 L 92.300781 101.480469 L 92.277344 101.496094 L 77.398438 103.320312 L 77.398438 103.308594 L 61.296875 121.203125 L 50.011719 133.742188 L 34.414062 151.078125 L 64.546875 147.382812 L 65.792969 147.226562 L 83.238281 145.089844 L 98.195312 143.253906 L 109.6875 130.484375 L 120.03125 118.988281 L 122.722656 116 L 141.160156 95.507812 L 141.175781 95.5 L 141.164062 95.5 " fill-opacity="1" fill-rule="nonzero"/></g></g></g></g></g><g clip-path="url(#id6)"><g clip-path="url(#id7)"><g clip-path="url(#id8)"><path fill="#ffbd59" d="M 66.976562 149.503906 L 72.542969 160.191406 C 72.546875 160.199219 72.550781 160.207031 72.554688 160.214844 C 74.871094 164.660156 79.972656 167.121094 86.359375 167.515625 C 92.8125 167.910156 100.574219 166.195312 108.101562 162.277344 C 109.070312 161.773438 110.011719 161.242188 110.921875 160.695312 L 110.921875 160.691406 C 117.972656 156.441406 123.265625 150.914062 126 145.414062 C 128.375 140.628906 128.820312 135.863281 126.792969 131.972656 C 126.789062 131.964844 126.785156 131.957031 126.78125 131.949219 L 121.214844 121.261719 L 99.378906 145.53125 L 66.976562 149.503906 " fill-opacity="1" fill-rule="nonzero"/></g></g></g><g clip-path="url(#id9)"><g clip-path="url(#id10)"><g clip-path="url(#id11)"><g clip-path="url(#id12)"><g clip-path="url(#id13)"><path fill="#ffbd59" d="M 74.300781 176.363281 L 74.210938 176.226562 L 68.558594 167.523438 L 68.3125 167.140625 L 65.589844 162.949219 L 65.945312 162.765625 L 63.394531 157.859375 C 63.652344 157.164062 63.632812 156.363281 63.257812 155.652344 C 63.070312 155.285156 62.808594 154.984375 62.5 154.75 C 62.003906 154.367188 61.386719 154.171875 60.761719 154.1875 L 57.65625 148.226562 L 55.117188 148.539062 L 58.644531 155.316406 C 58.066406 156.121094 57.949219 157.21875 58.441406 158.160156 C 58.8125 158.871094 59.453125 159.351562 60.175781 159.535156 L 62.726562 164.441406 L 63.117188 164.238281 L 64.234375 167.011719 L 65.625 170.464844 L 69.050781 178.96875 L 69.0625 179 L 70.917969 183.609375 L 72.578125 187.734375 C 72.613281 187.824219 72.664062 187.921875 72.71875 188.003906 C 73.40625 189.011719 75.457031 188.976562 77.296875 187.925781 C 79.136719 186.875 80.070312 185.203125 79.382812 184.195312 L 74.300781 176.363281 " fill-opacity="1" fill-rule="nonzero"/></g></g></g></g></g></svg>